# xmcd
#
# Track frame offsets:
#	150
#	18940
#	33010
#	53661
#	65410
#	84448
#	99131
#	114025
#	136220
#	152636
#
# Disc length: 2326 seconds
#
# Revision: 0
# Processed by: cddbd v1.5.2PL0 Copyright (c) Steve Scherf et al.
# Submitted via: EasyCDDAExtractor 10.0.2.1
#
DISCID=6309140a
DTITLE=Jaime Roos - Fuera de Ambiente
DYEAR=2006
DGENRE=popular
TTITLE0=Postales para Mario
TTITLE1=Catalina
TTITLE2=Por la mirada
TTITLE3=Solo contigo
TTITLE4=Por amor al arte
TTITLE5=De la canilla
TTITLE6=Te queria decir
TTITLE7=Tema del hombre solo
TTITLE8=Esquela
TTITLE9=Vida número dos
EXTD=
EXTT0=
EXTT1=
EXTT2=
EXTT3=
EXTT4=
EXTT5=
EXTT6=
EXTT7=
EXTT8=
EXTT9=
PLAYORDER=
